<?xml version="1.0" encoding="UTF-8" standalone="no"?><!DOCTYPE svg PUBLIC "-//W3C//DTD SVG 1.1//EN" "http://www.w3.org/Graphics/SVG/1.1/DTD/svg11.dtd"><svg width="100%" height="100%" viewBox="0 0 256 256" version="1.1" xmlns="http://www.w3.org/2000/svg" xmlns:xlink="http://www.w3.org/1999/xlink" xml:space="preserve" xmlns:serif="http://www.serif.com/" style="fill-rule:evenodd;clip-rule:evenodd;stroke-linejoin:round;stroke-miterlimit:2;"><path id="body" d="M0,177.473c1.24,40.262 10.209,47.015 25.345,27.034c10.12,4.973 21.136,3.069 23.883,-0.005c5.515,-6.171 -9.383,-15.058 -17.124,-30.408c-10.45,2.395 -21.131,3.624 -32.103,3.379Zm234.86,-70.965c-23.043,-48.108 -154.756,-52.994 -164.374,-50.195c41.194,4.36 126.741,9.237 159.176,50.195l-145.18,0c1.89,19.55 4.937,38.351 10.138,55.758c-6.532,-4.918 -11.566,-23.25 -15.207,-54.069c-11.328,0.574 -22.599,2.638 -33.793,6.759c2.592,12.256 6.716,26.423 13.517,43.931c-8.777,-4.15 -14.755,-19.068 -18.586,-42.241c-21.602,7.818 -37.62,22.684 -40.551,54.069c9.196,1.678 24.556,0.183 43.931,-3.379l11.827,11.827c-2.116,-6.035 -2.885,-10.743 -1.69,-13.517l8.448,0l15.207,15.207c-2.157,-6.414 -4.011,-12.321 -5.069,-16.896c27.856,9.511 35.859,22.178 18.586,38.862c15.883,-5.079 19.516,-15.666 10.138,-32.103c20.802,10.991 27.341,24.654 21.965,40.551c10.327,-11.211 10.507,-23.966 -3.379,-38.862l10.138,0c5.3,8.033 16.52,6.714 19.596,14.8c2.197,5.775 1.336,13.552 -1.01,20.682c10.199,-8.349 8.969,-21.002 6.502,-25.163c-3.661,-6.173 -12.343,-6.296 -13.261,-13.699c46.863,-7.343 88.326,-27.301 93.211,-48.899c41.904,-16.474 14.388,-40.228 -27.232,-55.979c-40.6,-15.365 -82.793,-26.247 -113.969,-22.924c35.445,2.729 83.33,13.979 121.609,31.8c36.777,17.122 48.049,32.122 20.322,41.421c0.113,-3.523 -0.28,-5.22 -1.01,-7.936Z" style="fill:#e23f24;"/><path id="shadows" d="M32.317,174.513l-5.283,6.339c2.708,6.236 7.579,12.951 15.207,20.276c-5.926,-1.079 -12.182,-8.441 -18.586,-18.586l-5.069,1.69c-0.515,7.298 1.717,14.284 6.378,20.774c-1.505,1.955 -2.948,3.642 -4.327,5.054c-5.051,-8.435 -8.038,-17.721 -8.81,-25.827l-11.654,-2.331c-0.069,-1.428 -0.127,-2.904 -0.174,-4.428c10.973,0.245 21.653,-0.985 32.103,-3.379c0.071,0.14 0.142,0.28 0.214,0.419Zm-32.127,-5.645c14.899,-0.642 30.059,-2.951 45.431,-6.602c-23.716,-9.415 -27.683,-19.446 -28.724,-29.569c3.551,9.082 10.991,15.201 25.345,16.052l-2.879,-31.664c0.394,-0.149 0.791,-0.295 1.189,-0.44c3.502,21.18 8.796,35.463 16.382,40.932l0.514,1.309l27.034,1.69c-3.888,-14.435 -6.675,-33.398 -6.876,-52.275c0.602,-0.039 1.204,-0.074 1.807,-0.104c3.641,30.819 8.675,49.151 15.207,54.069c-0.161,-0.538 -0.319,-1.077 -0.476,-1.617c54.101,3.175 97.006,-3.235 140.728,-39.466c-5.973,21.189 -46.846,40.618 -92.942,47.841c0.917,7.403 9.6,7.526 13.261,13.699c2.467,4.16 3.697,16.814 -6.502,25.163c2.346,-7.131 3.207,-14.907 1.01,-20.682c-3.076,-8.086 -14.296,-6.767 -19.596,-14.8l-10.138,0c13.886,14.895 13.706,27.651 3.379,38.862c5.376,-15.897 -1.164,-29.561 -21.965,-40.551c9.378,16.437 5.745,27.024 -10.138,32.103c17.273,-16.684 9.27,-29.351 -18.586,-38.862c1.058,4.575 2.912,10.482 5.069,16.896l-15.207,-15.207l-8.448,0c-1.195,2.775 -0.426,7.483 1.69,13.517l-11.827,-11.827c-19.375,3.562 -34.735,5.057 -43.931,3.379c0.058,-0.622 0.121,-1.238 0.19,-1.847Zm236.87,-49.521c0.393,-0.335 0.786,-0.672 1.18,-1.011c-0.046,0.188 -0.092,0.377 -0.14,0.566c-0.341,0.149 -0.688,0.298 -1.04,0.445Z" style="fill:#c22b15;"/><path id="glare" d="M114.896,117.491c0,3.264 -2.65,5.914 -5.914,5.914l-18.586,1.69c0.176,-4.048 -1.574,-9.066 -1.69,-12.445l20.276,-1.072c3.264,0 5.914,2.65 5.914,5.914Zm-37.172,5.914c0,1.574 -2.65,1.69 -5.914,1.69l-18.586,5.914c-1.513,-5.738 -1.574,-7.603 -1.69,-10.983c6.429,-5.024 13.185,-5.046 21.965,-6.759c4.954,-1.69 4.224,6.874 4.224,10.138Zm-44.776,1.69c4.196,0 5.914,3.407 5.914,7.603c0,4.196 -5.097,7.603 -9.293,7.603c-4.196,0 -5.914,-3.407 -5.914,-7.603c0,-4.196 5.097,-7.603 9.293,-7.603Z" style="fill:#ed8d82;"/><g id="eye"><circle cx="184.171" cy="128.473" r="16.896" style="fill:#fff;"/><circle cx="185.861" cy="126.784" r="10.138" style="fill:#343236;"/><circle cx="189.24" cy="121.715" r="3.379" style="fill:#fff;"/></g></svg>