<?xml version="1.0" encoding="UTF-8" standalone="no"?><!DOCTYPE svg PUBLIC "-//W3C//DTD SVG 1.1//EN" "http://www.w3.org/Graphics/SVG/1.1/DTD/svg11.dtd"><svg width="100%" height="100%" viewBox="0 0 114 78" version="1.1" xmlns="http://www.w3.org/2000/svg" xmlns:xlink="http://www.w3.org/1999/xlink" xml:space="preserve" xmlns:serif="http://www.serif.com/" style="fill-rule:evenodd;clip-rule:evenodd;stroke-linejoin:round;stroke-miterlimit:2;"><path id="body" d="M0,60.745c0.55,17.872 4.532,20.869 11.25,12c4.492,2.207 9.382,1.362 10.601,-0.002c2.448,-2.739 -4.165,-6.684 -7.601,-13.498c-4.639,1.063 -9.379,1.609 -14.25,1.5Zm104.25,-31.5c-10.229,-21.354 -68.693,-23.523 -72.962,-22.28c18.285,1.935 56.258,4.1 70.655,22.28l-64.443,0c0.839,8.678 2.191,17.023 4.5,24.75c-2.899,-2.183 -5.134,-10.32 -6.75,-24c-5.028,0.255 -10.031,1.171 -15,3c1.151,5.44 2.981,11.729 6,19.5c-3.896,-1.842 -6.549,-8.464 -8.25,-18.75c-9.589,3.47 -16.699,10.069 -18,24c4.082,0.745 10.9,0.081 19.5,-1.5l5.25,5.25c-0.939,-2.679 -1.28,-4.768 -0.75,-6l3.75,0l6.75,6.75c-0.958,-2.847 -1.78,-5.469 -2.25,-7.5c12.365,4.222 15.917,9.844 8.25,17.25c7.05,-2.255 8.663,-6.954 4.5,-14.25c9.234,4.879 12.136,10.944 9.75,18c4.584,-4.976 4.664,-10.638 -1.5,-17.25l4.5,0c2.352,3.566 7.333,2.98 8.698,6.569c0.975,2.564 0.593,6.015 -0.448,9.181c4.527,-3.706 3.981,-9.323 2.886,-11.169c-1.625,-2.74 -5.479,-2.795 -5.886,-6.081c20.801,-3.259 39.206,-12.118 41.375,-21.705c18.6,-7.313 6.386,-17.857 -12.088,-24.848c-18.021,-6.82 -36.75,-11.651 -50.589,-10.176c15.733,1.211 36.989,6.205 53.98,14.116c16.324,7.6 21.328,14.258 9.02,18.386c0.05,-1.564 -0.124,-2.317 -0.448,-3.523Z" style="fill:#e23f24;"/><path id="shadows" d="M14.345,59.431l-2.345,2.814c1.202,2.768 3.364,5.749 6.75,9c-2.63,-0.479 -5.408,-3.747 -8.25,-8.25l-2.25,0.75c-0.228,3.239 0.762,6.34 2.831,9.221c-0.668,0.868 -1.308,1.617 -1.921,2.243c-2.242,-3.744 -3.568,-7.866 -3.91,-11.464l-5.173,-1.035c-0.031,-0.634 -0.056,-1.289 -0.077,-1.965c4.871,0.109 9.611,-0.437 14.25,-1.5c0.031,0.062 0.063,0.124 0.095,0.186Zm-14.261,-2.506c6.613,-0.285 13.343,-1.31 20.166,-2.93c-10.527,-4.179 -12.288,-8.632 -12.75,-13.125c1.576,4.031 4.879,6.747 11.25,7.125l-1.278,-14.055c0.175,-0.066 0.351,-0.131 0.528,-0.195c1.554,9.401 3.905,15.741 7.272,18.169l0.228,0.581l12,0.75c-1.726,-6.408 -2.963,-14.825 -3.052,-23.204c0.267,-0.017 0.535,-0.033 0.802,-0.046c1.616,13.68 3.851,21.817 6.75,24c-0.071,-0.239 -0.142,-0.478 -0.211,-0.718c24.014,1.409 43.059,-1.436 62.467,-17.518c-2.651,9.405 -20.794,18.03 -41.255,21.236c0.407,3.286 4.261,3.341 5.886,6.081c1.095,1.847 1.641,7.463 -2.886,11.169c1.041,-3.165 1.424,-6.617 0.448,-9.181c-1.365,-3.589 -6.346,-3.004 -8.698,-6.569l-4.5,0c6.164,6.612 6.084,12.274 1.5,17.25c2.386,-7.056 -0.516,-13.121 -9.75,-18c4.163,7.296 2.55,11.995 -4.5,14.25c7.667,-7.406 4.115,-13.028 -8.25,-17.25c0.47,2.031 1.292,4.653 2.25,7.5l-6.75,-6.75l-3.75,0c-0.53,1.232 -0.189,3.321 0.75,6l-5.25,-5.25c-8.6,1.581 -15.418,2.245 -19.5,1.5c0.026,-0.276 0.054,-0.549 0.084,-0.82Zm105.142,-21.982c0.175,-0.148 0.349,-0.298 0.524,-0.449c-0.02,0.084 -0.041,0.167 -0.062,0.251c-0.152,0.066 -0.305,0.132 -0.462,0.198Z" style="fill:#c22b15;"/><path id="glare" d="M51,34.12c0,1.449 -1.176,2.625 -2.625,2.625l-8.25,0.75c0.078,-1.797 -0.699,-4.024 -0.75,-5.524l9,-0.476c1.449,0 2.625,1.176 2.625,2.625Zm-16.5,2.625c0,0.699 -1.176,0.75 -2.625,0.75l-8.25,2.625c-0.672,-2.547 -0.699,-3.375 -0.75,-4.875c2.854,-2.23 5.853,-2.24 9.75,-3c2.199,-0.75 1.875,3.051 1.875,4.5Zm-19.875,0.75c1.863,0 2.625,1.512 2.625,3.375c0,1.863 -2.262,3.375 -4.125,3.375c-1.863,0 -2.625,-1.512 -2.625,-3.375c0,-1.863 2.262,-3.375 4.125,-3.375Z" style="fill:#ed8d82;"/><g id="eye"><circle cx="81.75" cy="38.995" r="7.5" style="fill:#fff;"/><circle cx="82.5" cy="38.245" r="4.5" style="fill:#343236;"/><circle cx="84" cy="35.995" r="1.5" style="fill:#fff;"/></g></svg>